{
	"asset":{
		"generator":"Khronos glTF Blender I/O v4.4.56",
		"version":"2.0"
	},
	"extensionsUsed":[
		"KHR_materials_emissive_strength"
	],
	"scene":0,
	"scenes":[
		{
			"name":"Scene",
			"nodes":[
				0,
				1,
				2,
				3,
				4,
				5,
				6,
				7,
				8,
				9,
				10,
				11,
				12,
				13,
				14,
				15,
				16,
				17,
				18,
				19,
				20,
				21,
				22,
				23,
				24,
				25,
				26,
				27,
				28,
				29
			]
		}
	],
	"nodes":[
		{
			"mesh":0,
			"name":"Cube.006"
		},
		{
			"mesh":1,
			"name":"Cube.011"
		},
		{
			"mesh":2,
			"name":"Cube.012"
		},
		{
			"mesh":3,
			"name":"Cube.013"
		},
		{
			"mesh":4,
			"name":"Cube.014"
		},
		{
			"mesh":5,
			"name":"Plane.005"
		},
		{
			"mesh":6,
			"name":"Cylinder.001"
		},
		{
			"mesh":7,
			"name":"Cylinder.002",
			"rotation":[
				0,
				-1,
				0,
				1.6292068494294654e-07
			],
			"translation":[
				0,
				0,
				0.0011650323867797852
			]
		},
		{
			"mesh":8,
			"name":"Cylinder.003",
			"rotation":[
				0,
				-1,
				0,
				1.6292068494294654e-07
			],
			"translation":[
				0,
				-0.1868225336074829,
				0.0011650323867797852
			]
		},
		{
			"mesh":9,
			"name":"Cube.015"
		},
		{
			"mesh":10,
			"name":"Cube.016"
		},
		{
			"mesh":11,
			"name":"Circle.001",
			"translation":[
				0.3427716791629791,
				3.7278525829315186,
				5.5586113929748535
			]
		},
		{
			"mesh":12,
			"name":"Circle.002",
			"translation":[
				-0.8876627683639526,
				3.6875171661376953,
				0.4569501578807831
			]
		},
		{
			"mesh":13,
			"name":"Circle.003",
			"translation":[
				-0.8876627683639526,
				3.6875171661376953,
				0.4569501578807831
			]
		},
		{
			"name":"Cylinder.005",
			"translation":[
				1.4027934074401855,
				0.5939056277275085,
				5.833135604858398
			]
		},
		{
			"mesh":14,
			"name":"Cube.017"
		},
		{
			"mesh":15,
			"name":"Plane.006"
		},
		{
			"mesh":16,
			"name":"Cube.018"
		},
		{
			"mesh":17,
			"name":"Cube.020"
		},
		{
			"mesh":18,
			"name":"Circle.007"
		},
		{
			"mesh":19,
			"name":"Plane.008"
		},
		{
			"mesh":20,
			"name":"Cube.021"
		},
		{
			"mesh":21,
			"name":"Cube.022"
		},
		{
			"mesh":22,
			"name":"Cube.023"
		},
		{
			"mesh":23,
			"name":"Cube.026"
		},
		{
			"mesh":24,
			"name":"Plane.009"
		},
		{
			"mesh":25,
			"name":"Plane.010",
			"scale":[
				1.1504427194595337,
				1,
				1
			]
		},
		{
			"mesh":26,
			"name":"Plane.011",
			"scale":[
				1.1504427194595337,
				1,
				1
			]
		},
		{
			"mesh":27,
			"name":"Plane.012",
			"scale":[
				1.1504427194595337,
				1,
				1
			]
		},
		{
			"mesh":28,
			"name":"Cube.027"
		}
	],
	"materials":[
		{
			"doubleSided":true,
			"name":"main",
			"pbrMetallicRoughness":{
				"baseColorTexture":{
					"index":0
				},
				"metallicFactor":0.10000000149011612,
				"roughnessFactor":0.5
			}
		},
		{
			"doubleSided":true,
			"name":"booggy",
			"normalTexture":{
				"index":1
			},
			"pbrMetallicRoughness":{
				"baseColorTexture":{
					"index":2
				},
				"metallicRoughnessTexture":{
					"index":3
				}
			}
		},
		{
			"doubleSided":true,
			"name":"mainupper",
			"normalTexture":{
				"index":4
			},
			"pbrMetallicRoughness":{
				"baseColorTexture":{
					"index":5
				},
				"metallicRoughnessTexture":{
					"index":6
				}
			}
		},
		{
			"doubleSided":true,
			"name":"black",
			"pbrMetallicRoughness":{
				"baseColorFactor":[
					0.028887666761875153,
					0.028887666761875153,
					0.028887666761875153,
					1
				],
				"metallicFactor":0.4220183491706848,
				"roughnessFactor":0.3165137767791748
			}
		},
		{
			"doubleSided":true,
			"name":"ironupperwhi",
			"normalTexture":{
				"index":7
			},
			"pbrMetallicRoughness":{
				"baseColorTexture":{
					"index":8
				},
				"metallicRoughnessTexture":{
					"index":9
				}
			}
		},
		{
			"doubleSided":true,
			"name":"cable",
			"pbrMetallicRoughness":{
				"baseColorFactor":[
					0.06907834112644196,
					0.06907834112644196,
					0.06907834112644196,
					1
				],
				"metallicFactor":0.20000000298023224,
				"roughnessFactor":0.5
			}
		},
		{
			"doubleSided":true,
			"name":"insulators",
			"pbrMetallicRoughness":{
				"baseColorFactor":[
					0.0334165059030056,
					0.0049839261919260025,
					0,
					1
				],
				"metallicFactor":0.20000000298023224,
				"roughnessFactor":0.009999999776482582
			}
		},
		{
			"doubleSided":true,
			"name":"ironupperblk",
			"normalTexture":{
				"index":10
			},
			"pbrMetallicRoughness":{
				"baseColorTexture":{
					"index":11
				},
				"metallicRoughnessTexture":{
					"index":12
				}
			}
		},
		{
			"doubleSided":true,
			"name":"dark",
			"pbrMetallicRoughness":{
				"baseColorFactor":[
					0,
					0,
					0,
					1
				],
				"metallicFactor":0,
				"roughnessFactor":0.5
			}
		},
		{
			"alphaMode":"BLEND",
			"doubleSided":true,
			"name":"Material.003",
			"pbrMetallicRoughness":{
				"baseColorFactor":[
					0.018639056012034416,
					0.018639056012034416,
					0.018639056012034416,
					0.6000000238418579
				],
				"metallicFactor":0,
				"roughnessFactor":0.08715596795082092
			}
		},
		{
			"doubleSided":true,
			"emissiveFactor":[
				1,
				0.032465122640132904,
				0
			],
			"extensions":{
				"KHR_materials_emissive_strength":{
					"emissiveStrength":50
				}
			},
			"name":"redmit",
			"pbrMetallicRoughness":{
				"baseColorFactor":[
					0,
					0,
					0,
					1
				]
			}
		},
		{
			"doubleSided":true,
			"name":"steel",
			"pbrMetallicRoughness":{
				"baseColorFactor":[
					0.05342599004507065,
					0.05342599004507065,
					0.05342599004507065,
					1
				],
				"metallicFactor":0,
				"roughnessFactor":0.08715596795082092
			}
		},
		{
			"doubleSided":true,
			"emissiveFactor":[
				1,
				0.8867583274841309,
				0.5935560464859009
			],
			"name":"whitemeit",
			"pbrMetallicRoughness":{
				"baseColorFactor":[
					0,
					0,
					0,
					1
				]
			}
		}
	],
	"meshes":[
		{
			"name":"Cube.007",
			"primitives":[
				{
					"attributes":{
						"POSITION":0,
						"NORMAL":1,
						"TEXCOORD_0":2
					},
					"indices":3,
					"material":0
				}
			]
		},
		{
			"name":"Cube.013",
			"primitives":[
				{
					"attributes":{
						"POSITION":4,
						"NORMAL":5,
						"TEXCOORD_0":6
					},
					"indices":7,
					"material":1
				}
			]
		},
		{
			"name":"Cube.014",
			"primitives":[
				{
					"attributes":{
						"POSITION":8,
						"NORMAL":9,
						"TEXCOORD_0":10
					},
					"indices":11,
					"material":2
				}
			]
		},
		{
			"name":"Cube.015",
			"primitives":[
				{
					"attributes":{
						"POSITION":12,
						"NORMAL":13,
						"TEXCOORD_0":14
					},
					"indices":15,
					"material":3
				}
			]
		},
		{
			"name":"Cube.016",
			"primitives":[
				{
					"attributes":{
						"POSITION":16,
						"NORMAL":17,
						"TEXCOORD_0":18
					},
					"indices":19,
					"material":1
				}
			]
		},
		{
			"name":"Plane.002",
			"primitives":[
				{
					"attributes":{
						"POSITION":20,
						"NORMAL":21,
						"TEXCOORD_0":22
					},
					"indices":23,
					"material":4
				}
			]
		},
		{
			"name":"Cylinder.001",
			"primitives":[
				{
					"attributes":{
						"POSITION":24,
						"NORMAL":25,
						"TEXCOORD_0":26
					},
					"indices":27,
					"material":5
				}
			]
		},
		{
			"name":"Cylinder.002",
			"primitives":[
				{
					"attributes":{
						"POSITION":28,
						"NORMAL":29,
						"TEXCOORD_0":30
					},
					"indices":31
				}
			]
		},
		{
			"name":"Cylinder.003",
			"primitives":[
				{
					"attributes":{
						"POSITION":32,
						"NORMAL":33,
						"TEXCOORD_0":34
					},
					"indices":35
				}
			]
		},
		{
			"name":"Cube.017",
			"primitives":[
				{
					"attributes":{
						"POSITION":36,
						"NORMAL":37,
						"TEXCOORD_0":38
					},
					"indices":39,
					"material":3
				}
			]
		},
		{
			"name":"Cube.018",
			"primitives":[
				{
					"attributes":{
						"POSITION":40,
						"NORMAL":41,
						"TEXCOORD_0":42
					},
					"indices":43
				}
			]
		},
		{
			"name":"Circle.001",
			"primitives":[
				{
					"attributes":{
						"POSITION":44,
						"NORMAL":45,
						"TEXCOORD_0":46
					},
					"indices":47
				}
			]
		},
		{
			"name":"Circle.002",
			"primitives":[
				{
					"attributes":{
						"POSITION":48,
						"NORMAL":49,
						"TEXCOORD_0":50
					},
					"indices":51,
					"material":6
				}
			]
		},
		{
			"name":"Circle.003",
			"primitives":[
				{
					"attributes":{
						"POSITION":52,
						"NORMAL":53,
						"TEXCOORD_0":54
					},
					"indices":55
				}
			]
		},
		{
			"name":"Cube.019",
			"primitives":[
				{
					"attributes":{
						"POSITION":56,
						"NORMAL":57,
						"TEXCOORD_0":58
					},
					"indices":59,
					"material":7
				}
			]
		},
		{
			"name":"Plane.003",
			"primitives":[
				{
					"attributes":{
						"POSITION":60,
						"NORMAL":61,
						"TEXCOORD_0":62
					},
					"indices":63,
					"material":8
				}
			]
		},
		{
			"name":"Cube.020",
			"primitives":[
				{
					"attributes":{
						"POSITION":64,
						"NORMAL":65,
						"TEXCOORD_0":66
					},
					"indices":67,
					"material":9
				}
			]
		},
		{
			"name":"Cube.021",
			"primitives":[
				{
					"attributes":{
						"POSITION":68,
						"NORMAL":69,
						"TEXCOORD_0":70
					},
					"indices":71,
					"material":3
				}
			]
		},
		{
			"name":"Circle.004",
			"primitives":[
				{
					"attributes":{
						"POSITION":72,
						"NORMAL":73,
						"TEXCOORD_0":74
					},
					"indices":75,
					"material":9
				}
			]
		},
		{
			"name":"Plane.004",
			"primitives":[
				{
					"attributes":{
						"POSITION":76,
						"NORMAL":77,
						"TEXCOORD_0":78
					},
					"indices":79,
					"material":2
				}
			]
		},
		{
			"name":"Cube.022",
			"primitives":[
				{
					"attributes":{
						"POSITION":80,
						"NORMAL":81,
						"TEXCOORD_0":82
					},
					"indices":83,
					"material":1
				}
			]
		},
		{
			"name":"Cube.023",
			"primitives":[
				{
					"attributes":{
						"POSITION":84,
						"NORMAL":85,
						"TEXCOORD_0":86
					},
					"indices":87,
					"material":9
				}
			]
		},
		{
			"name":"Cube.025",
			"primitives":[
				{
					"attributes":{
						"POSITION":88,
						"NORMAL":89,
						"TEXCOORD_0":90
					},
					"indices":91,
					"material":10
				}
			]
		},
		{
			"name":"Cube.026",
			"primitives":[
				{
					"attributes":{
						"POSITION":92,
						"NORMAL":93,
						"TEXCOORD_0":94
					},
					"indices":95,
					"material":11
				}
			]
		},
		{
			"name":"Plane.006",
			"primitives":[
				{
					"attributes":{
						"POSITION":96,
						"NORMAL":97,
						"TEXCOORD_0":98
					},
					"indices":99,
					"material":3
				}
			]
		},
		{
			"name":"Plane.008",
			"primitives":[
				{
					"attributes":{
						"POSITION":100,
						"NORMAL":101,
						"TEXCOORD_0":102
					},
					"indices":103,
					"material":2
				}
			]
		},
		{
			"name":"Plane.012",
			"primitives":[
				{
					"attributes":{
						"POSITION":104,
						"NORMAL":105,
						"TEXCOORD_0":106
					},
					"indices":107,
					"material":2
				}
			]
		},
		{
			"name":"Plane.013",
			"primitives":[
				{
					"attributes":{
						"POSITION":108,
						"NORMAL":109,
						"TEXCOORD_0":110
					},
					"indices":111,
					"material":9
				}
			]
		},
		{
			"name":"Cube.028",
			"primitives":[
				{
					"attributes":{
						"POSITION":112,
						"NORMAL":113,
						"TEXCOORD_0":114
					},
					"indices":115,
					"material":12
				}
			]
		}
	],
	"textures":[
		{
			"sampler":0,
			"source":0
		},
		{
			"sampler":0,
			"source":1
		},
		{
			"sampler":0,
			"source":2
		},
		{
			"sampler":0,
			"source":3
		},
		{
			"sampler":0,
			"source":4
		},
		{
			"sampler":0,
			"source":5
		},
		{
			"sampler":0,
			"source":6
		},
		{
			"sampler":0,
			"source":7
		},
		{
			"sampler":0,
			"source":8
		},
		{
			"sampler":0,
			"source":9
		},
		{
			"sampler":0,
			"source":10
		},
		{
			"sampler":0,
			"source":11
		},
		{
			"sampler":0,
			"source":12
		}
	],
	"images":[
		{
			"mimeType":"image/png",
			"name":"wap7uv",
			"uri":"wap7uv.png"
		},
		{
			"mimeType":"image/png",
			"name":"booggy_Normal",
			"uri":"booggy_Normal.png"
		},
		{
			"mimeType":"image/png",
			"name":"booggy_Base_color",
			"uri":"booggy_Base_color.png"
		},
		{
			"mimeType":"image/png",
			"name":"booggy_Metallic.png-booggy_Roughness.png",
			"uri":"booggy_Metallic_png-booggy_Roughness_png.png"
		},
		{
			"mimeType":"image/png",
			"name":"mainupper_Normal",
			"uri":"mainupper_Normal.png"
		},
		{
			"mimeType":"image/png",
			"name":"mainupper_Base_color",
			"uri":"mainupper_Base_color.png"
		},
		{
			"mimeType":"image/png",
			"name":"mainupper_Metallic.png-mainupper_Roughness.png",
			"uri":"mainupper_Metallic_png-mainupper_Roughness_png.png"
		},
		{
			"mimeType":"image/png",
			"name":"ironupperwhi_Normal",
			"uri":"ironupperwhi_Normal.png"
		},
		{
			"mimeType":"image/png",
			"name":"ironupperwhi_Base_color",
			"uri":"ironupperwhi_Base_color.png"
		},
		{
			"mimeType":"image/png",
			"name":"ironupperwhi_Metallic.png-ironupperwhi_Roughness.png",
			"uri":"ironupperwhi_Metallic_png-ironupperwhi_Roughness_png.png"
		},
		{
			"mimeType":"image/png",
			"name":"ironupperblk_Normal",
			"uri":"ironupperblk_Normal.png"
		},
		{
			"mimeType":"image/png",
			"name":"ironupperblk_Base_color",
			"uri":"ironupperblk_Base_color.png"
		},
		{
			"mimeType":"image/png",
			"name":"ironupperblk_Metallic.png-ironupperblk_Roughness.png",
			"uri":"ironupperblk_Metallic_png-ironupperblk_Roughness_png.png"
		}
	],
	"accessors":[
		{
			"bufferView":0,
			"componentType":5126,
			"count":4602,
			"max":[
				1.5496574640274048,
				3.4365954399108887,
				10.0106201171875
			],
			"min":[
				-1.5496574640274048,
				1.6102795600891113,
				-10.0106201171875
			],
			"type":"VEC3"
		},
		{
			"bufferView":1,
			"componentType":5126,
			"count":4602,
			"type":"VEC3"
		},
		{
			"bufferView":2,
			"componentType":5126,
			"count":4602,
			"type":"VEC2"
		},
		{
			"bufferView":3,
			"componentType":5123,
			"count":26271,
			"type":"SCALAR"
		},
		{
			"bufferView":4,
			"componentType":5126,
			"count":3150,
			"max":[
				1.1661707162857056,
				3.414827823638916,
				9.780662536621094
			],
			"min":[
				-1.1661707162857056,
				2.8016719818115234,
				-9.780662536621094
			],
			"type":"VEC3"
		},
		{
			"bufferView":5,
			"componentType":5126,
			"count":3150,
			"type":"VEC3"
		},
		{
			"bufferView":6,
			"componentType":5126,
			"count":3150,
			"type":"VEC2"
		},
		{
			"bufferView":7,
			"componentType":5123,
			"count":5400,
			"type":"SCALAR"
		},
		{
			"bufferView":8,
			"componentType":5126,
			"count":5822,
			"max":[
				1.1206289529800415,
				2.4687390327453613,
				9.865110397338867
			],
			"min":[
				-1.1206289529800415,
				2.0392866134643555,
				-9.865110397338867
			],
			"type":"VEC3"
		},
		{
			"bufferView":9,
			"componentType":5126,
			"count":5822,
			"type":"VEC3"
		},
		{
			"bufferView":10,
			"componentType":5126,
			"count":5822,
			"type":"VEC2"
		},
		{
			"bufferView":11,
			"componentType":5123,
			"count":21672,
			"type":"SCALAR"
		},
		{
			"bufferView":12,
			"componentType":5126,
			"count":592,
			"max":[
				1.5362390279769897,
				3.363704204559326,
				9.37805461883545
			],
			"min":[
				-1.5362390279769897,
				2.7657079696655273,
				-9.37805461883545
			],
			"type":"VEC3"
		},
		{
			"bufferView":13,
			"componentType":5126,
			"count":592,
			"type":"VEC3"
		},
		{
			"bufferView":14,
			"componentType":5126,
			"count":592,
			"type":"VEC2"
		},
		{
			"bufferView":15,
			"componentType":5123,
			"count":3504,
			"type":"SCALAR"
		},
		{
			"bufferView":16,
			"componentType":5126,
			"count":1042,
			"max":[
				1.1928777694702148,
				3.4349966049194336,
				9.67475700378418
			],
			"min":[
				-1.1928777694702148,
				3.334939956665039,
				-9.67475700378418
			],
			"type":"VEC3"
		},
		{
			"bufferView":17,
			"componentType":5126,
			"count":1042,
			"type":"VEC3"
		},
		{
			"bufferView":18,
			"componentType":5126,
			"count":1042,
			"type":"VEC2"
		},
		{
			"bufferView":19,
			"componentType":5123,
			"count":1656,
			"type":"SCALAR"
		},
		{
			"bufferView":20,
			"componentType":5126,
			"count":8494,
			"max":[
				1.2437336444854736,
				4.242088317871094,
				6.739665985107422
			],
			"min":[
				-1.4276858568191528,
				0.26823607087135315,
				-6.739665985107422
			],
			"type":"VEC3"
		},
		{
			"bufferView":21,
			"componentType":5126,
			"count":8494,
			"type":"VEC3"
		},
		{
			"bufferView":22,
			"componentType":5126,
			"count":8494,
			"type":"VEC2"
		},
		{
			"bufferView":23,
			"componentType":5123,
			"count":29544,
			"type":"SCALAR"
		},
		{
			"bufferView":24,
			"componentType":5126,
			"count":1670,
			"max":[
				1.0040658712387085,
				4.256599426269531,
				6.906162261962891
			],
			"min":[
				-1.0264703035354614,
				3.64452862739563,
				-5.751796722412109
			],
			"type":"VEC3"
		},
		{
			"bufferView":25,
			"componentType":5126,
			"count":1670,
			"type":"VEC3"
		},
		{
			"bufferView":26,
			"componentType":5126,
			"count":1670,
			"type":"VEC2"
		},
		{
			"bufferView":27,
			"componentType":5123,
			"count":4812,
			"type":"SCALAR"
		},
		{
			"bufferView":28,
			"componentType":5126,
			"count":65,
			"max":[
				-0.20336028933525085,
				3.6725285053253174,
				6.906162261962891
			],
			"min":[
				-0.32198482751846313,
				3.64452862739563,
				6.052532196044922
			],
			"type":"VEC3"
		},
		{
			"bufferView":29,
			"componentType":5126,
			"count":65,
			"type":"VEC3"
		},
		{
			"bufferView":30,
			"componentType":5126,
			"count":65,
			"type":"VEC2"
		},
		{
			"bufferView":31,
			"componentType":5123,
			"count":288,
			"type":"SCALAR"
		},
		{
			"bufferView":32,
			"componentType":5126,
			"count":384,
			"max":[
				-0.26233357191085815,
				4.016873836517334,
				6.753993034362793
			],
			"min":[
				-0.41154468059539795,
				3.8865199089050293,
				6.587338447570801
			],
			"type":"VEC3"
		},
		{
			"bufferView":33,
			"componentType":5126,
			"count":384,
			"type":"VEC3"
		},
		{
			"bufferView":34,
			"componentType":5126,
			"count":384,
			"type":"VEC2"
		},
		{
			"bufferView":35,
			"componentType":5123,
			"count":1788,
			"type":"SCALAR"
		},
		{
			"bufferView":36,
			"componentType":5126,
			"count":34603,
			"max":[
				1.0749127864837646,
				3.976032257080078,
				4.287349224090576
			],
			"min":[
				-1.3671985864639282,
				3.645545482635498,
				-4.2639336585998535
			],
			"type":"VEC3"
		},
		{
			"bufferView":37,
			"componentType":5126,
			"count":34603,
			"type":"VEC3"
		},
		{
			"bufferView":38,
			"componentType":5126,
			"count":34603,
			"type":"VEC2"
		},
		{
			"bufferView":39,
			"componentType":5123,
			"count":110688,
			"type":"SCALAR"
		},
		{
			"bufferView":40,
			"componentType":5126,
			"count":22,
			"max":[
				0.05258720740675926,
				4.269593238830566,
				8.72823715209961
			],
			"min":[
				-0.17268705368041992,
				4.0824198722839355,
				-8.72823715209961
			],
			"type":"VEC3"
		},
		{
			"bufferView":41,
			"componentType":5126,
			"count":22,
			"type":"VEC3"
		},
		{
			"bufferView":42,
			"componentType":5126,
			"count":22,
			"type":"VEC2"
		},
		{
			"bufferView":43,
			"componentType":5123,
			"count":72,
			"type":"SCALAR"
		},
		{
			"bufferView":44,
			"componentType":5126,
			"count":440,
			"max":[
				0.7148064374923706,
				0.32161036133766174,
				-4.043545246124268
			],
			"min":[
				-0.9381416440010071,
				-0.09889578819274902,
				-5.640091896057129
			],
			"type":"VEC3"
		},
		{
			"bufferView":45,
			"componentType":5126,
			"count":440,
			"type":"VEC3"
		},
		{
			"bufferView":46,
			"componentType":5126,
			"count":440,
			"type":"VEC2"
		},
		{
			"bufferView":47,
			"componentType":5123,
			"count":1320,
			"type":"SCALAR"
		},
		{
			"bufferView":48,
			"componentType":5126,
			"count":25472,
			"max":[
				2.010479688644409,
				0.5572695732116699,
				6.330853462219238
			],
			"min":[
				-0.22796308994293213,
				-0.08164048194885254,
				-7.244753837585449
			],
			"type":"VEC3"
		},
		{
			"bufferView":49,
			"componentType":5126,
			"count":25472,
			"type":"VEC3"
		},
		{
			"bufferView":50,
			"componentType":5126,
			"count":25472,
			"type":"VEC2"
		},
		{
			"bufferView":51,
			"componentType":5123,
			"count":97122,
			"type":"SCALAR"
		},
		{
			"bufferView":52,
			"componentType":5126,
			"count":111,
			"max":[
				0.05604124069213867,
				0.44063276052474976,
				0.056617602705955505
			],
			"min":[
				-0.05604131519794464,
				0.39363035559654236,
				-0.05661754310131073
			],
			"type":"VEC3"
		},
		{
			"bufferView":53,
			"componentType":5126,
			"count":111,
			"type":"VEC3"
		},
		{
			"bufferView":54,
			"componentType":5126,
			"count":111,
			"type":"VEC2"
		},
		{
			"bufferView":55,
			"componentType":5123,
			"count":198,
			"type":"SCALAR"
		},
		{
			"bufferView":56,
			"componentType":5126,
			"count":4401,
			"max":[
				1.431778907775879,
				4.072181224822998,
				1.9771091938018799
			],
			"min":[
				-1.431778907775879,
				0.24917984008789062,
				-1.9771091938018799
			],
			"type":"VEC3"
		},
		{
			"bufferView":57,
			"componentType":5126,
			"count":4401,
			"type":"VEC3"
		},
		{
			"bufferView":58,
			"componentType":5126,
			"count":4401,
			"type":"VEC2"
		},
		{
			"bufferView":59,
			"componentType":5123,
			"count":14760,
			"type":"SCALAR"
		},
		{
			"bufferView":60,
			"componentType":5126,
			"count":16,
			"max":[
				1.5004026889801025,
				1.454215168952942,
				9.990242958068848
			],
			"min":[
				-1.5004026889801025,
				1.454215168952942,
				-9.990242958068848
			],
			"type":"VEC3"
		},
		{
			"bufferView":61,
			"componentType":5126,
			"count":16,
			"type":"VEC3"
		},
		{
			"bufferView":62,
			"componentType":5126,
			"count":16,
			"type":"VEC2"
		},
		{
			"bufferView":63,
			"componentType":5123,
			"count":54,
			"type":"SCALAR"
		},
		{
			"bufferView":64,
			"componentType":5126,
			"count":240,
			"max":[
				1.5383203029632568,
				3.388277053833008,
				9.762406349182129
			],
			"min":[
				-1.5383203029632568,
				2.7863969802856445,
				-9.762406349182129
			],
			"type":"VEC3"
		},
		{
			"bufferView":65,
			"componentType":5126,
			"count":240,
			"type":"VEC3"
		},
		{
			"bufferView":66,
			"componentType":5126,
			"count":240,
			"type":"VEC2"
		},
		{
			"bufferView":67,
			"componentType":5123,
			"count":816,
			"type":"SCALAR"
		},
		{
			"bufferView":68,
			"componentType":5126,
			"count":192,
			"max":[
				1.5547795295715332,
				3.3123717308044434,
				8.30716323852539
			],
			"min":[
				-1.5547795295715332,
				2.764146327972412,
				-8.30716323852539
			],
			"type":"VEC3"
		},
		{
			"bufferView":69,
			"componentType":5126,
			"count":192,
			"type":"VEC3"
		},
		{
			"bufferView":70,
			"componentType":5126,
			"count":192,
			"type":"VEC2"
		},
		{
			"bufferView":71,
			"componentType":5123,
			"count":384,
			"type":"SCALAR"
		},
		{
			"bufferView":72,
			"componentType":5126,
			"count":260,
			"max":[
				0.23213768005371094,
				2.3954153060913086,
				9.878360748291016
			],
			"min":[
				-0.2307073473930359,
				2.1988024711608887,
				-9.878360748291016
			],
			"type":"VEC3"
		},
		{
			"bufferView":73,
			"componentType":5126,
			"count":260,
			"type":"VEC3"
		},
		{
			"bufferView":74,
			"componentType":5126,
			"count":260,
			"type":"VEC2"
		},
		{
			"bufferView":75,
			"componentType":5123,
			"count":1152,
			"type":"SCALAR"
		},
		{
			"bufferView":76,
			"componentType":5126,
			"count":390,
			"max":[
				1.1485439538955688,
				2.6339170932769775,
				10.086260795593262
			],
			"min":[
				-1.1485439538955688,
				1.6627687215805054,
				-10.086260795593262
			],
			"type":"VEC3"
		},
		{
			"bufferView":77,
			"componentType":5126,
			"count":390,
			"type":"VEC3"
		},
		{
			"bufferView":78,
			"componentType":5126,
			"count":390,
			"type":"VEC2"
		},
		{
			"bufferView":79,
			"componentType":5123,
			"count":2016,
			"type":"SCALAR"
		},
		{
			"bufferView":80,
			"componentType":5126,
			"count":142546,
			"max":[
				1.5504909753799438,
				1.5695641040802002,
				10.66387939453125
			],
			"min":[
				-1.5504909753799438,
				0.010390892624855042,
				-10.66387939453125
			],
			"type":"VEC3"
		},
		{
			"bufferView":81,
			"componentType":5126,
			"count":142546,
			"type":"VEC3"
		},
		{
			"bufferView":82,
			"componentType":5126,
			"count":142546,
			"type":"VEC2"
		},
		{
			"bufferView":83,
			"componentType":5125,
			"count":294936,
			"type":"SCALAR"
		},
		{
			"bufferView":84,
			"componentType":5126,
			"count":536,
			"max":[
				1.0710535049438477,
				2.4034032821655273,
				9.87130355834961
			],
			"min":[
				-1.0710535049438477,
				2.1089394092559814,
				-9.87130355834961
			],
			"type":"VEC3"
		},
		{
			"bufferView":85,
			"componentType":5126,
			"count":536,
			"type":"VEC3"
		},
		{
			"bufferView":86,
			"componentType":5126,
			"count":536,
			"type":"VEC2"
		},
		{
			"bufferView":87,
			"componentType":5123,
			"count":2640,
			"type":"SCALAR"
		},
		{
			"bufferView":88,
			"componentType":5126,
			"count":48,
			"max":[
				1.0323262214660645,
				2.1925642490386963,
				-9.846231460571289
			],
			"min":[
				-1.040005087852478,
				2.1372523307800293,
				-9.850342750549316
			],
			"type":"VEC3"
		},
		{
			"bufferView":89,
			"componentType":5126,
			"count":48,
			"type":"VEC3"
		},
		{
			"bufferView":90,
			"componentType":5126,
			"count":48,
			"type":"VEC2"
		},
		{
			"bufferView":91,
			"componentType":5123,
			"count":138,
			"type":"SCALAR"
		},
		{
			"bufferView":92,
			"componentType":5126,
			"count":184,
			"max":[
				1.522484540939331,
				3.068284034729004,
				-7.629088401794434
			],
			"min":[
				-1.522484540939331,
				1.6190688610076904,
				-8.528268814086914
			],
			"type":"VEC3"
		},
		{
			"bufferView":93,
			"componentType":5126,
			"count":184,
			"type":"VEC3"
		},
		{
			"bufferView":94,
			"componentType":5126,
			"count":184,
			"type":"VEC2"
		},
		{
			"bufferView":95,
			"componentType":5123,
			"count":432,
			"type":"SCALAR"
		},
		{
			"bufferView":96,
			"componentType":5126,
			"count":8030,
			"max":[
				1.2119749784469604,
				3.4323911666870117,
				9.873337745666504
			],
			"min":[
				-1.2156033515930176,
				2.7014949321746826,
				-9.873337745666504
			],
			"type":"VEC3"
		},
		{
			"bufferView":97,
			"componentType":5126,
			"count":8030,
			"type":"VEC3"
		},
		{
			"bufferView":98,
			"componentType":5126,
			"count":8030,
			"type":"VEC2"
		},
		{
			"bufferView":99,
			"componentType":5123,
			"count":24048,
			"type":"SCALAR"
		},
		{
			"bufferView":100,
			"componentType":5126,
			"count":184,
			"max":[
				1.3233901262283325,
				3.068284034729004,
				8.528268814086914
			],
			"min":[
				-1.3233901262283325,
				1.6190688610076904,
				7.629088401794434
			],
			"type":"VEC3"
		},
		{
			"bufferView":101,
			"componentType":5126,
			"count":184,
			"type":"VEC3"
		},
		{
			"bufferView":102,
			"componentType":5126,
			"count":184,
			"type":"VEC2"
		},
		{
			"bufferView":103,
			"componentType":5123,
			"count":432,
			"type":"SCALAR"
		},
		{
			"bufferView":104,
			"componentType":5126,
			"count":4247,
			"max":[
				1.3298836946487427,
				4.294625759124756,
				10.233108520507812
			],
			"min":[
				-1.3298836946487427,
				1.3309941291809082,
				-10.233108520507812
			],
			"type":"VEC3"
		},
		{
			"bufferView":105,
			"componentType":5126,
			"count":4247,
			"type":"VEC3"
		},
		{
			"bufferView":106,
			"componentType":5126,
			"count":4247,
			"type":"VEC2"
		},
		{
			"bufferView":107,
			"componentType":5123,
			"count":11718,
			"type":"SCALAR"
		},
		{
			"bufferView":108,
			"componentType":5126,
			"count":5783,
			"max":[
				0.8444851040840149,
				5.8950042724609375,
				6.740558624267578
			],
			"min":[
				-0.945393443107605,
				3.771636486053467,
				-6.740558624267578
			],
			"type":"VEC3"
		},
		{
			"bufferView":109,
			"componentType":5126,
			"count":5783,
			"type":"VEC3"
		},
		{
			"bufferView":110,
			"componentType":5126,
			"count":5783,
			"type":"VEC2"
		},
		{
			"bufferView":111,
			"componentType":5123,
			"count":18312,
			"type":"SCALAR"
		},
		{
			"bufferView":112,
			"componentType":5126,
			"count":46,
			"max":[
				1.0323262214660645,
				2.3642778396606445,
				9.850541114807129
			],
			"min":[
				-1.0323262214660645,
				2.3197786808013916,
				9.850539207458496
			],
			"type":"VEC3"
		},
		{
			"bufferView":113,
			"componentType":5126,
			"count":46,
			"type":"VEC3"
		},
		{
			"bufferView":114,
			"componentType":5126,
			"count":46,
			"type":"VEC2"
		},
		{
			"bufferView":115,
			"componentType":5123,
			"count":132,
			"type":"SCALAR"
		}
	],
	"bufferViews":[
		{
			"buffer":0,
			"byteLength":55224,
			"byteOffset":0,
			"target":34962
		},
		{
			"buffer":0,
			"byteLength":55224,
			"byteOffset":55224,
			"target":34962
		},
		{
			"buffer":0,
			"byteLength":36816,
			"byteOffset":110448,
			"target":34962
		},
		{
			"buffer":0,
			"byteLength":52542,
			"byteOffset":147264,
			"target":34963
		},
		{
			"buffer":0,
			"byteLength":37800,
			"byteOffset":199808,
			"target":34962
		},
		{
			"buffer":0,
			"byteLength":37800,
			"byteOffset":237608,
			"target":34962
		},
		{
			"buffer":0,
			"byteLength":25200,
			"byteOffset":275408,
			"target":34962
		},
		{
			"buffer":0,
			"byteLength":10800,
			"byteOffset":300608,
			"target":34963
		},
		{
			"buffer":0,
			"byteLength":69864,
			"byteOffset":311408,
			"target":34962
		},
		{
			"buffer":0,
			"byteLength":69864,
			"byteOffset":381272,
			"target":34962
		},
		{
			"buffer":0,
			"byteLength":46576,
			"byteOffset":451136,
			"target":34962
		},
		{
			"buffer":0,
			"byteLength":43344,
			"byteOffset":497712,
			"target":34963
		},
		{
			"buffer":0,
			"byteLength":7104,
			"byteOffset":541056,
			"target":34962
		},
		{
			"buffer":0,
			"byteLength":7104,
			"byteOffset":548160,
			"target":34962
		},
		{
			"buffer":0,
			"byteLength":4736,
			"byteOffset":555264,
			"target":34962
		},
		{
			"buffer":0,
			"byteLength":7008,
			"byteOffset":560000,
			"target":34963
		},
		{
			"buffer":0,
			"byteLength":12504,
			"byteOffset":567008,
			"target":34962
		},
		{
			"buffer":0,
			"byteLength":12504,
			"byteOffset":579512,
			"target":34962
		},
		{
			"buffer":0,
			"byteLength":8336,
			"byteOffset":592016,
			"target":34962
		},
		{
			"buffer":0,
			"byteLength":3312,
			"byteOffset":600352,
			"target":34963
		},
		{
			"buffer":0,
			"byteLength":101928,
			"byteOffset":603664,
			"target":34962
		},
		{
			"buffer":0,
			"byteLength":101928,
			"byteOffset":705592,
			"target":34962
		},
		{
			"buffer":0,
			"byteLength":67952,
			"byteOffset":807520,
			"target":34962
		},
		{
			"buffer":0,
			"byteLength":59088,
			"byteOffset":875472,
			"target":34963
		},
		{
			"buffer":0,
			"byteLength":20040,
			"byteOffset":934560,
			"target":34962
		},
		{
			"buffer":0,
			"byteLength":20040,
			"byteOffset":954600,
			"target":34962
		},
		{
			"buffer":0,
			"byteLength":13360,
			"byteOffset":974640,
			"target":34962
		},
		{
			"buffer":0,
			"byteLength":9624,
			"byteOffset":988000,
			"target":34963
		},
		{
			"buffer":0,
			"byteLength":780,
			"byteOffset":997624,
			"target":34962
		},
		{
			"buffer":0,
			"byteLength":780,
			"byteOffset":998404,
			"target":34962
		},
		{
			"buffer":0,
			"byteLength":520,
			"byteOffset":999184,
			"target":34962
		},
		{
			"buffer":0,
			"byteLength":576,
			"byteOffset":999704,
			"target":34963
		},
		{
			"buffer":0,
			"byteLength":4608,
			"byteOffset":1000280,
			"target":34962
		},
		{
			"buffer":0,
			"byteLength":4608,
			"byteOffset":1004888,
			"target":34962
		},
		{
			"buffer":0,
			"byteLength":3072,
			"byteOffset":1009496,
			"target":34962
		},
		{
			"buffer":0,
			"byteLength":3576,
			"byteOffset":1012568,
			"target":34963
		},
		{
			"buffer":0,
			"byteLength":415236,
			"byteOffset":1016144,
			"target":34962
		},
		{
			"buffer":0,
			"byteLength":415236,
			"byteOffset":1431380,
			"target":34962
		},
		{
			"buffer":0,
			"byteLength":276824,
			"byteOffset":1846616,
			"target":34962
		},
		{
			"buffer":0,
			"byteLength":221376,
			"byteOffset":2123440,
			"target":34963
		},
		{
			"buffer":0,
			"byteLength":264,
			"byteOffset":2344816,
			"target":34962
		},
		{
			"buffer":0,
			"byteLength":264,
			"byteOffset":2345080,
			"target":34962
		},
		{
			"buffer":0,
			"byteLength":176,
			"byteOffset":2345344,
			"target":34962
		},
		{
			"buffer":0,
			"byteLength":144,
			"byteOffset":2345520,
			"target":34963
		},
		{
			"buffer":0,
			"byteLength":5280,
			"byteOffset":2345664,
			"target":34962
		},
		{
			"buffer":0,
			"byteLength":5280,
			"byteOffset":2350944,
			"target":34962
		},
		{
			"buffer":0,
			"byteLength":3520,
			"byteOffset":2356224,
			"target":34962
		},
		{
			"buffer":0,
			"byteLength":2640,
			"byteOffset":2359744,
			"target":34963
		},
		{
			"buffer":0,
			"byteLength":305664,
			"byteOffset":2362384,
			"target":34962
		},
		{
			"buffer":0,
			"byteLength":305664,
			"byteOffset":2668048,
			"target":34962
		},
		{
			"buffer":0,
			"byteLength":203776,
			"byteOffset":2973712,
			"target":34962
		},
		{
			"buffer":0,
			"byteLength":194244,
			"byteOffset":3177488,
			"target":34963
		},
		{
			"buffer":0,
			"byteLength":1332,
			"byteOffset":3371732,
			"target":34962
		},
		{
			"buffer":0,
			"byteLength":1332,
			"byteOffset":3373064,
			"target":34962
		},
		{
			"buffer":0,
			"byteLength":888,
			"byteOffset":3374396,
			"target":34962
		},
		{
			"buffer":0,
			"byteLength":396,
			"byteOffset":3375284,
			"target":34963
		},
		{
			"buffer":0,
			"byteLength":52812,
			"byteOffset":3375680,
			"target":34962
		},
		{
			"buffer":0,
			"byteLength":52812,
			"byteOffset":3428492,
			"target":34962
		},
		{
			"buffer":0,
			"byteLength":35208,
			"byteOffset":3481304,
			"target":34962
		},
		{
			"buffer":0,
			"byteLength":29520,
			"byteOffset":3516512,
			"target":34963
		},
		{
			"buffer":0,
			"byteLength":192,
			"byteOffset":3546032,
			"target":34962
		},
		{
			"buffer":0,
			"byteLength":192,
			"byteOffset":3546224,
			"target":34962
		},
		{
			"buffer":0,
			"byteLength":128,
			"byteOffset":3546416,
			"target":34962
		},
		{
			"buffer":0,
			"byteLength":108,
			"byteOffset":3546544,
			"target":34963
		},
		{
			"buffer":0,
			"byteLength":2880,
			"byteOffset":3546652,
			"target":34962
		},
		{
			"buffer":0,
			"byteLength":2880,
			"byteOffset":3549532,
			"target":34962
		},
		{
			"buffer":0,
			"byteLength":1920,
			"byteOffset":3552412,
			"target":34962
		},
		{
			"buffer":0,
			"byteLength":1632,
			"byteOffset":3554332,
			"target":34963
		},
		{
			"buffer":0,
			"byteLength":2304,
			"byteOffset":3555964,
			"target":34962
		},
		{
			"buffer":0,
			"byteLength":2304,
			"byteOffset":3558268,
			"target":34962
		},
		{
			"buffer":0,
			"byteLength":1536,
			"byteOffset":3560572,
			"target":34962
		},
		{
			"buffer":0,
			"byteLength":768,
			"byteOffset":3562108,
			"target":34963
		},
		{
			"buffer":0,
			"byteLength":3120,
			"byteOffset":3562876,
			"target":34962
		},
		{
			"buffer":0,
			"byteLength":3120,
			"byteOffset":3565996,
			"target":34962
		},
		{
			"buffer":0,
			"byteLength":2080,
			"byteOffset":3569116,
			"target":34962
		},
		{
			"buffer":0,
			"byteLength":2304,
			"byteOffset":3571196,
			"target":34963
		},
		{
			"buffer":0,
			"byteLength":4680,
			"byteOffset":3573500,
			"target":34962
		},
		{
			"buffer":0,
			"byteLength":4680,
			"byteOffset":3578180,
			"target":34962
		},
		{
			"buffer":0,
			"byteLength":3120,
			"byteOffset":3582860,
			"target":34962
		},
		{
			"buffer":0,
			"byteLength":4032,
			"byteOffset":3585980,
			"target":34963
		},
		{
			"buffer":0,
			"byteLength":1710552,
			"byteOffset":3590012,
			"target":34962
		},
		{
			"buffer":0,
			"byteLength":1710552,
			"byteOffset":5300564,
			"target":34962
		},
		{
			"buffer":0,
			"byteLength":1140368,
			"byteOffset":7011116,
			"target":34962
		},
		{
			"buffer":0,
			"byteLength":1179744,
			"byteOffset":8151484,
			"target":34963
		},
		{
			"buffer":0,
			"byteLength":6432,
			"byteOffset":9331228,
			"target":34962
		},
		{
			"buffer":0,
			"byteLength":6432,
			"byteOffset":9337660,
			"target":34962
		},
		{
			"buffer":0,
			"byteLength":4288,
			"byteOffset":9344092,
			"target":34962
		},
		{
			"buffer":0,
			"byteLength":5280,
			"byteOffset":9348380,
			"target":34963
		},
		{
			"buffer":0,
			"byteLength":576,
			"byteOffset":9353660,
			"target":34962
		},
		{
			"buffer":0,
			"byteLength":576,
			"byteOffset":9354236,
			"target":34962
		},
		{
			"buffer":0,
			"byteLength":384,
			"byteOffset":9354812,
			"target":34962
		},
		{
			"buffer":0,
			"byteLength":276,
			"byteOffset":9355196,
			"target":34963
		},
		{
			"buffer":0,
			"byteLength":2208,
			"byteOffset":9355472,
			"target":34962
		},
		{
			"buffer":0,
			"byteLength":2208,
			"byteOffset":9357680,
			"target":34962
		},
		{
			"buffer":0,
			"byteLength":1472,
			"byteOffset":9359888,
			"target":34962
		},
		{
			"buffer":0,
			"byteLength":864,
			"byteOffset":9361360,
			"target":34963
		},
		{
			"buffer":0,
			"byteLength":96360,
			"byteOffset":9362224,
			"target":34962
		},
		{
			"buffer":0,
			"byteLength":96360,
			"byteOffset":9458584,
			"target":34962
		},
		{
			"buffer":0,
			"byteLength":64240,
			"byteOffset":9554944,
			"target":34962
		},
		{
			"buffer":0,
			"byteLength":48096,
			"byteOffset":9619184,
			"target":34963
		},
		{
			"buffer":0,
			"byteLength":2208,
			"byteOffset":9667280,
			"target":34962
		},
		{
			"buffer":0,
			"byteLength":2208,
			"byteOffset":9669488,
			"target":34962
		},
		{
			"buffer":0,
			"byteLength":1472,
			"byteOffset":9671696,
			"target":34962
		},
		{
			"buffer":0,
			"byteLength":864,
			"byteOffset":9673168,
			"target":34963
		},
		{
			"buffer":0,
			"byteLength":50964,
			"byteOffset":9674032,
			"target":34962
		},
		{
			"buffer":0,
			"byteLength":50964,
			"byteOffset":9724996,
			"target":34962
		},
		{
			"buffer":0,
			"byteLength":33976,
			"byteOffset":9775960,
			"target":34962
		},
		{
			"buffer":0,
			"byteLength":23436,
			"byteOffset":9809936,
			"target":34963
		},
		{
			"buffer":0,
			"byteLength":69396,
			"byteOffset":9833372,
			"target":34962
		},
		{
			"buffer":0,
			"byteLength":69396,
			"byteOffset":9902768,
			"target":34962
		},
		{
			"buffer":0,
			"byteLength":46264,
			"byteOffset":9972164,
			"target":34962
		},
		{
			"buffer":0,
			"byteLength":36624,
			"byteOffset":10018428,
			"target":34963
		},
		{
			"buffer":0,
			"byteLength":552,
			"byteOffset":10055052,
			"target":34962
		},
		{
			"buffer":0,
			"byteLength":552,
			"byteOffset":10055604,
			"target":34962
		},
		{
			"buffer":0,
			"byteLength":368,
			"byteOffset":10056156,
			"target":34962
		},
		{
			"buffer":0,
			"byteLength":264,
			"byteOffset":10056524,
			"target":34963
		}
	],
	"samplers":[
		{
			"magFilter":9729,
			"minFilter":9987
		}
	],
	"buffers":[
		{
			"byteLength":10056788,
			"uri":"uvwag9.bin"
		}
	]
}
